# Blender 4.1.0
# www.blender.org
mtllib Sandbox.mtl
o Cube
v 0.050000 1.000000 -0.050000
v 0.050000 1.000000 0.050000
v -0.050000 1.000000 -0.050000
v -0.050000 1.000000 0.050000
v 0.050000 1.049971 0.050000
v 0.050000 1.049971 -0.050000
v -0.050000 1.049971 0.050000
v -0.050000 1.049971 -0.050000
v -0.050000 1.000000 0.050000
v 0.050000 1.000000 0.050000
v 0.050000 1.000000 -0.050000
v -0.050000 1.000000 -0.050000
v -0.050000 1.049971 0.050000
v 0.050000 1.049971 0.050000
v 0.050000 1.049971 -0.050000
v -0.050000 1.049971 -0.050000
v -0.050000 1.000000 0.050000
v 0.050000 1.000000 0.050000
v 0.050000 1.000000 -0.050000
v -0.050000 1.000000 -0.050000
v -0.050000 1.049971 0.050000
v 0.050000 1.049971 0.050000
v 0.050000 1.049971 -0.050000
v -0.050000 1.049971 -0.050000
v -0.050000 1.000000 0.050000
v 0.050000 1.000000 0.050000
v -0.050000 1.049971 0.050000
v 0.050000 1.049971 0.050000
v -0.050000 1.000000 0.250004
v 0.050000 1.000000 0.250004
v -0.050000 1.049971 0.250004
v 0.050000 1.049971 0.250004
v 0.050000 1.000000 -0.250018
v -0.050000 1.000000 -0.250018
v 0.050000 1.049971 -0.250018
v -0.050000 1.049971 -0.250018
v 0.250000 1.000000 0.050000
v 0.250000 1.000000 -0.050000
v 0.250000 1.049971 0.050000
v 0.250000 1.049971 -0.050000
v 0.250000 1.000000 -0.050000
v 0.250000 1.049971 -0.050000
v 0.250000 1.049971 0.050000
v 0.250000 1.000000 0.050000
v 0.250000 1.049971 0.250004
v 0.250000 1.000000 0.250004
v 0.250000 1.000000 -0.250018
v 0.250000 1.049971 -0.250018
v -0.250000 1.000000 -0.050000
v -0.250000 1.000000 0.050000
v -0.250000 1.049971 -0.050000
v -0.250000 1.049971 0.050000
v -0.250000 1.000000 -0.050000
v -0.250000 1.049971 -0.050000
v -0.250000 1.049971 0.050000
v -0.250000 1.000000 0.050000
v -0.250000 1.049971 0.250004
v -0.250000 1.000000 0.250004
v -0.250000 1.000000 -0.250018
v -0.250000 1.049971 -0.250018
v -0.050000 1.000000 0.275172
v 0.050000 1.000000 0.275172
v -0.050000 1.049971 0.275172
v 0.050000 1.049971 0.275172
v 0.250000 1.049971 0.275172
v 0.250000 1.000000 0.275172
v -0.250000 1.049971 0.275172
v -0.250000 1.000000 0.275172
v 0.050000 1.000000 -0.275229
v -0.050000 1.000000 -0.275229
v 0.050000 1.049971 -0.275229
v -0.050000 1.049971 -0.275229
v 0.250000 1.000000 -0.275229
v 0.250000 1.049971 -0.275229
v -0.250000 1.000000 -0.275229
v -0.250000 1.049971 -0.275229
v 0.274828 1.000000 0.050000
v 0.274828 1.000000 -0.050000
v 0.274828 1.049971 0.050000
v 0.274828 1.049971 -0.050000
v 0.274828 1.000000 -0.050000
v 0.274828 1.049971 -0.050000
v 0.274828 1.049971 0.050000
v 0.274828 1.000000 0.050000
v 0.274828 1.049971 0.250004
v 0.274828 1.000000 0.250004
v 0.274828 1.000000 -0.250018
v 0.274828 1.049971 -0.250018
v 0.274828 1.049971 0.275172
v 0.274828 1.000000 0.275172
v 0.274828 1.000000 -0.275229
v 0.274828 1.049971 -0.275229
v -0.274952 1.000000 -0.275229
v -0.274952 1.000000 -0.250018
v -0.274952 1.000000 -0.050000
v -0.274952 1.000000 0.050000
v -0.274952 1.049971 -0.050000
v -0.274952 1.049971 0.050000
v -0.274952 1.000000 -0.050000
v -0.274952 1.049971 -0.050000
v -0.274952 1.049971 0.050000
v -0.274952 1.000000 0.050000
v -0.274952 1.049971 0.250004
v -0.274952 1.000000 0.250004
v -0.274952 1.049971 -0.250018
v -0.274952 1.049971 0.275172
v -0.274952 1.000000 0.275172
v -0.274952 1.049971 -0.275229
v -0.050000 1.099536 0.250004
v 0.050000 1.099536 0.250004
v -0.050000 1.099536 0.275172
v 0.050000 1.099536 0.275172
v 0.050000 1.099536 -0.250018
v -0.050000 1.099536 -0.250018
v 0.250000 1.099536 0.050000
v 0.250000 1.099536 -0.050000
v 0.250000 1.099536 0.250004
v 0.250000 1.099536 0.050000
v 0.250000 1.099536 -0.250018
v 0.250000 1.099536 -0.050000
v -0.250000 1.099536 -0.050000
v -0.250000 1.099536 0.050000
v -0.274952 1.099536 -0.050000
v -0.250000 1.099536 -0.050000
v -0.250000 1.099536 0.250004
v -0.250000 1.099536 0.050000
v -0.250000 1.099536 -0.250018
v 0.250000 1.099536 0.275172
v -0.250000 1.099536 0.275172
v 0.050000 1.099536 -0.275229
v -0.050000 1.099536 -0.275229
v 0.250000 1.099536 -0.275229
v -0.250000 1.099536 -0.275229
v 0.274828 1.099536 0.050000
v 0.274828 1.099536 -0.050000
v 0.274828 1.099536 0.250004
v 0.274828 1.099536 0.050000
v 0.274828 1.099536 -0.250018
v 0.274828 1.099536 -0.050000
v 0.274828 1.099536 0.275172
v 0.274828 1.099536 -0.275229
v -0.274952 1.099536 -0.050000
v -0.274952 1.099536 0.050000
v -0.274952 1.099536 0.250004
v -0.274952 1.099536 0.050000
v -0.274952 1.099536 -0.250018
v -0.274952 1.099536 0.275172
v -0.274952 1.099536 -0.275229
v -0.050000 1.149626 0.250004
v 0.050000 1.149626 0.250004
v -0.050000 1.149626 0.275172
v 0.050000 1.149626 0.275172
v 0.050000 1.149626 -0.250018
v -0.050000 1.149626 -0.250018
v 0.250000 1.149626 0.050000
v 0.250000 1.149626 -0.050000
v 0.250000 1.149626 0.250004
v 0.250000 1.149626 0.050000
v 0.250000 1.149626 -0.250018
v 0.250000 1.149626 -0.050000
v -0.250000 1.149626 -0.050000
v -0.250000 1.149626 0.050000
v -0.274952 1.149626 -0.050000
v -0.250000 1.149626 -0.050000
v -0.250000 1.149626 0.250004
v -0.250000 1.149626 0.050000
v -0.250000 1.149626 -0.250018
v 0.250000 1.149626 0.275172
v -0.250000 1.149626 0.275172
v 0.050000 1.149626 -0.275229
v -0.050000 1.149626 -0.275229
v 0.250000 1.149626 -0.275229
v -0.250000 1.149626 -0.275229
v 0.274828 1.149626 0.050000
v 0.274828 1.149626 -0.050000
v 0.274828 1.149626 0.250004
v 0.274828 1.149626 0.050000
v 0.274828 1.149626 -0.250018
v 0.274828 1.149626 -0.050000
v 0.274828 1.149626 0.275172
v 0.274828 1.149626 -0.275229
v -0.274952 1.149626 -0.050000
v -0.274952 1.149626 0.050000
v -0.274952 1.149626 0.250004
v -0.274952 1.149626 0.050000
v -0.274952 1.149626 -0.250018
v -0.274952 1.149626 0.275172
v -0.274952 1.149626 -0.275229
v -0.299943 1.099536 -0.050000
v -0.299943 1.149626 -0.050000
v -0.299943 1.149626 -0.275229
v -0.299943 1.099536 -0.275229
v -0.299943 1.099536 -0.050000
v -0.299943 1.099536 0.050000
v -0.299943 1.099536 0.250004
v -0.299943 1.099536 0.050000
v -0.299943 1.099536 -0.250018
v -0.299943 1.099536 0.275172
v -0.299943 1.149626 -0.050000
v -0.299943 1.149626 0.050000
v -0.299943 1.149626 0.250004
v -0.299943 1.149626 0.050000
v -0.299943 1.149626 -0.250018
v -0.299943 1.149626 0.275172
v 0.299609 1.099536 -0.275229
v 0.299609 1.149626 -0.275229
v 0.299609 1.099536 0.050000
v 0.299609 1.099536 -0.050000
v 0.299609 1.099536 0.250004
v 0.299609 1.099536 0.050000
v 0.299609 1.099536 -0.250018
v 0.299609 1.099536 -0.050000
v 0.299609 1.099536 0.275172
v 0.299609 1.149626 0.050000
v 0.299609 1.149626 -0.050000
v 0.299609 1.149626 0.250004
v 0.299609 1.149626 0.050000
v 0.299609 1.149626 -0.250018
v 0.299609 1.149626 -0.050000
v 0.299609 1.149626 0.275172
v 0.250000 1.149626 -0.300304
v 0.250000 1.099536 -0.300304
v 0.274828 1.099536 -0.300304
v 0.274828 1.149626 -0.300304
v 0.050000 1.099536 -0.300304
v -0.050000 1.099536 -0.300304
v -0.250000 1.099536 -0.300304
v -0.274952 1.149626 -0.300304
v -0.274952 1.099536 -0.300304
v -0.250000 1.149626 -0.300304
v 0.050000 1.149626 -0.300304
v -0.050000 1.149626 -0.300304
v -0.299943 1.149626 -0.300304
v -0.299943 1.099536 -0.300304
v 0.299609 1.099536 -0.300304
v 0.299609 1.149626 -0.300304
v -0.050000 1.099536 0.300144
v 0.050000 1.099536 0.300144
v 0.250000 1.099536 0.300144
v -0.250000 1.099536 0.300144
v 0.274828 1.099536 0.300144
v -0.274952 1.099536 0.300144
v -0.050000 1.149626 0.300144
v 0.050000 1.149626 0.300144
v 0.250000 1.149626 0.300144
v -0.250000 1.149626 0.300144
v 0.274828 1.149626 0.300144
v -0.274952 1.149626 0.300144
v -0.299943 1.149626 0.300144
v -0.299943 1.099536 0.300144
v 0.299609 1.099536 0.300144
v 0.299609 1.149626 0.300144
vn -0.0000 1.0000 -0.0000
vn -0.0000 -1.0000 -0.0000
vn -0.0000 -0.0000 -1.0000
vn -0.0000 -0.0000 1.0000
vn 1.0000 -0.0000 -0.0000
vn -1.0000 -0.0000 -0.0000
vt 0.375000 0.750000
vt 0.375000 0.500000
vt 0.125000 0.500000
vt 0.125000 0.750000
vt 0.375000 0.250000
vt 0.375000 0.000000
vt 0.375000 1.000000
s 0
f 8/1/1 51/1/1 52/2/1 7/2/1
f 5/3/1 6/4/1 8/1/1 7/2/1
f 4/2/2 9/2/2 13/2/2 7/2/2
f 5/5/2 14/5/2 10/5/2 2/5/2
f 6/6/3 40/6/3 38/6/3 1/6/3
f 12/1/2 20/1/2 19/7/2 11/7/2
f 15/4/2 23/4/2 24/1/2 16/1/2
f 6/4/2 15/4/2 16/1/2 8/1/2
f 3/1/2 12/1/2 11/7/2 1/7/2
f 7/2/2 13/2/2 14/3/2 5/3/2
f 1/6/2 11/6/2 15/6/2 6/6/2
f 2/5/2 10/5/2 9/2/2 4/2/2
f 8/1/2 16/1/2 12/1/2 3/1/2
f 23/4/1 35/4/1 36/1/1 24/1/1
f 21/2/2 27/2/2 28/3/2 22/3/2
f 11/6/2 19/6/2 23/6/2 15/6/2
f 16/1/2 24/1/2 20/1/2 12/1/2
f 13/2/2 21/2/2 22/3/2 14/3/2
f 10/5/2 18/5/2 17/2/2 9/2/2
f 14/5/2 22/5/2 18/5/2 10/5/2
f 9/2/2 17/2/2 21/2/2 13/2/2
f 28/5/3 43/5/3 44/5/3 26/5/3
f 18/5/2 26/5/2 25/2/2 17/2/2
f 22/5/2 28/5/2 26/5/2 18/5/2
f 17/2/2 25/2/2 27/2/2 21/2/2
f 59/1/2 94/1/2 93/1/2 75/1/2
f 27/2/1 31/2/1 32/3/1 28/3/1
f 20/1/2 53/1/2 59/1/2 34/1/2
f 26/5/2 30/5/2 29/2/2 25/2/2
f 33/7/2 69/7/2 73/7/2 47/7/2
f 20/1/2 34/1/2 33/7/2 19/7/2
f 32/3/1 45/3/1 43/3/1 28/3/1
f 7/2/4 52/2/4 50/2/4 4/2/4
f 73/7/2 91/7/2 87/7/2 47/7/2
f 88/6/5 138/6/5 139/6/5 82/6/5
f 66/5/4 90/5/4 89/5/4 65/5/4
f 19/6/4 41/6/4 42/6/4 23/6/4
f 23/4/1 42/4/1 48/4/1 35/4/1
f 29/2/2 61/2/2 68/2/2 58/2/2
f 5/3/1 39/3/1 40/4/1 6/4/1
f 2/5/4 37/5/4 39/5/4 5/5/4
f 1/6/2 38/6/2 37/5/2 2/5/2
f 33/7/2 47/7/2 41/7/2 19/7/2
f 26/5/2 44/5/2 46/5/2 30/5/2
f 34/1/2 70/1/2 69/7/2 33/7/2
f 64/5/4 112/5/4 111/2/4 63/2/4
f 56/2/3 102/2/3 101/2/3 55/2/3
f 68/2/2 107/2/2 104/2/2 58/2/2
f 36/1/1 60/1/1 54/1/1 24/1/1
f 105/1/6 146/1/6 148/1/6 108/1/6
f 27/2/1 55/2/1 57/2/1 31/2/1
f 59/1/2 75/1/2 70/1/2 34/1/2
f 4/2/2 50/2/2 49/1/2 3/1/2
f 29/2/2 58/2/2 56/2/2 25/2/2
f 3/1/3 49/1/3 51/1/3 8/1/3
f 24/1/4 54/1/4 53/1/4 20/1/4
f 25/2/3 56/2/3 55/2/3 27/2/3
f 62/5/4 64/5/4 63/2/4 61/2/4
f 62/5/4 66/5/4 65/5/4 64/5/4
f 63/2/4 67/2/4 68/2/4 61/2/4
f 30/5/2 62/5/2 61/2/2 29/2/2
f 38/6/2 78/6/2 77/5/2 37/5/2
f 43/5/3 118/5/3 137/5/3 83/5/3
f 45/3/6 117/3/6 118/3/6 43/3/6
f 46/5/2 66/5/2 62/5/2 30/5/2
f 70/1/3 72/1/3 71/7/3 69/7/3
f 71/7/3 74/7/3 73/7/3 69/7/3
f 70/1/3 75/1/3 76/1/3 72/1/3
f 108/1/3 148/1/3 133/1/3 76/1/3
f 83/5/5 137/5/5 136/5/5 85/5/5
f 54/1/4 100/1/4 99/1/4 53/1/4
f 60/1/5 127/1/5 124/1/5 54/1/5
f 44/5/2 84/5/2 86/5/2 46/5/2
f 78/6/5 80/6/5 79/5/5 77/5/5
f 83/5/5 85/5/5 86/5/5 84/5/5
f 81/6/5 87/6/5 88/6/5 82/6/5
f 85/5/5 89/5/5 90/5/5 86/5/5
f 87/6/5 91/6/5 92/6/5 88/6/5
f 97/1/3 142/1/3 121/1/3 51/1/3
f 74/7/3 92/7/3 91/7/3 73/7/3
f 40/6/3 80/6/3 78/6/3 38/6/3
f 98/2/6 143/2/6 142/1/6 97/1/6
f 46/5/2 86/5/2 90/5/2 66/5/2
f 35/4/4 113/4/4 114/1/4 36/1/4
f 37/5/4 77/5/4 79/5/4 39/5/4
f 47/7/2 87/7/2 81/7/2 41/7/2
f 106/2/6 147/2/6 144/2/6 103/2/6
f 41/6/4 81/6/4 82/6/4 42/6/4
f 43/5/3 83/5/3 84/5/3 44/5/3
f 104/2/6 107/2/6 106/2/6 103/2/6
f 96/2/6 98/2/6 97/1/6 95/1/6
f 102/2/6 104/2/6 103/2/6 101/2/6
f 100/1/6 105/1/6 94/1/6 99/1/6
f 105/1/6 108/1/6 93/1/6 94/1/6
f 89/5/4 140/5/4 128/5/4 65/5/4
f 50/2/2 96/2/2 95/1/2 49/1/2
f 58/2/2 104/2/2 102/2/2 56/2/2
f 76/1/3 133/1/3 131/1/3 72/1/3
f 67/2/4 106/2/4 107/2/4 68/2/4
f 49/1/3 95/1/3 97/1/3 51/1/3
f 75/1/3 93/1/3 108/1/3 76/1/3
f 52/2/4 122/2/4 143/2/4 98/2/4
f 52/2/4 98/2/4 96/2/4 50/2/4
f 48/4/4 119/4/4 113/4/4 35/4/4
f 53/1/2 99/1/2 94/1/2 59/1/2
f 151/2/1 243/2/1 244/3/1 152/3/1
f 134/5/4 207/5/4 214/5/4 174/5/4
f 186/1/1 203/1/1 190/1/1 163/1/1
f 125/2/3 165/2/3 149/2/3 109/2/3
f 148/1/2 229/1/2 227/1/2 133/1/2
f 109/2/3 149/2/3 150/3/3 110/3/3
f 143/2/2 194/2/2 193/1/2 142/1/2
f 114/1/4 154/1/4 167/1/4 127/1/4
f 139/6/4 179/6/4 160/6/4 120/6/4
f 127/1/5 167/1/5 164/1/5 124/1/5
f 126/2/5 166/2/5 165/2/5 125/2/5
f 131/1/2 226/1/2 225/7/2 130/7/2
f 124/1/4 164/1/4 163/1/4 123/1/4
f 172/4/1 221/4/1 231/4/1 170/4/1
f 134/5/4 174/5/4 155/5/4 115/5/4
f 121/1/5 161/1/5 162/2/5 122/2/5
f 42/4/6 120/4/6 119/4/6 48/4/6
f 101/2/3 145/2/3 126/2/3 55/2/3
f 72/1/3 131/1/3 130/7/3 71/7/3
f 51/1/5 121/1/5 122/2/5 52/2/5
f 31/2/3 109/2/3 110/3/3 32/3/3
f 40/6/3 116/6/3 135/6/3 80/6/3
f 103/2/6 144/2/6 145/2/6 101/2/6
f 65/5/4 128/5/4 112/5/4 64/5/4
f 32/3/3 110/3/3 117/3/3 45/3/3
f 79/5/4 134/5/4 115/5/4 39/5/4
f 67/2/4 129/2/4 147/2/4 106/2/4
f 85/5/5 136/5/5 140/5/5 89/5/5
f 80/6/5 135/6/5 134/5/5 79/5/5
f 74/7/3 132/7/3 141/7/3 92/7/3
f 39/3/6 115/3/6 116/4/6 40/4/6
f 36/1/4 114/1/4 127/1/4 60/1/4
f 71/7/3 130/7/3 132/7/3 74/7/3
f 100/1/6 123/1/6 146/1/6 105/1/6
f 82/6/4 139/6/4 120/6/4 42/6/4
f 92/6/5 141/6/5 138/6/5 88/6/5
f 54/1/4 124/1/4 123/1/4 100/1/4
f 63/2/4 111/2/4 129/2/4 67/2/4
f 57/2/3 125/2/3 109/2/3 31/2/3
f 55/2/5 126/2/5 125/2/5 57/2/5
f 157/3/1 176/3/1 177/3/1 158/3/1
f 165/2/1 184/2/1 187/2/1 169/2/1
f 149/2/1 151/2/1 152/3/1 150/3/1
f 150/3/1 152/3/1 168/3/1 157/3/1
f 165/2/1 169/2/1 151/2/1 149/2/1
f 159/4/1 172/4/1 170/4/1 153/4/1
f 153/4/1 170/4/1 171/1/1 154/1/1
f 154/1/1 171/1/1 173/1/1 167/1/1
f 155/3/1 174/3/1 175/4/1 156/4/1
f 160/4/1 179/4/1 178/4/1 159/4/1
f 159/4/1 178/4/1 181/4/1 172/4/1
f 168/3/1 180/3/1 176/3/1 157/3/1
f 166/2/1 185/2/1 184/2/1 165/2/1
f 161/1/1 182/1/1 183/2/1 162/2/1
f 167/1/1 186/1/1 163/1/1 164/1/1
f 173/1/1 188/1/1 186/1/1 167/1/1
f 173/1/1 230/1/1 228/1/1 188/1/1
f 147/2/2 242/2/2 250/2/2 198/2/2
f 213/5/2 251/5/2 241/5/2 140/5/2
f 142/1/3 193/1/3 199/1/3 182/1/3
f 113/4/4 153/4/4 154/1/4 114/1/4
f 174/3/1 214/3/1 215/4/1 175/4/1
f 180/3/1 247/3/1 252/3/1 220/3/1
f 185/2/1 202/2/1 201/2/1 184/2/1
f 115/3/6 155/3/6 156/4/6 116/4/6
f 177/5/3 217/5/3 210/5/3 137/5/3
f 145/2/3 185/2/3 166/2/3 126/2/3
f 117/3/6 157/3/6 158/3/6 118/3/6
f 204/2/1 249/2/1 248/2/1 187/2/1
f 140/5/2 241/5/2 239/5/2 128/5/2
f 120/4/6 160/4/6 159/4/6 119/4/6
f 118/5/3 158/5/3 177/5/3 137/5/3
f 170/4/1 231/4/1 232/1/1 171/1/1
f 110/3/3 150/3/3 157/3/3 117/3/3
f 192/1/2 234/1/2 229/1/2 148/1/2
f 122/2/4 162/2/4 183/2/4 143/2/4
f 119/4/4 159/4/4 153/4/4 113/4/4
f 116/6/3 156/6/3 175/6/3 135/6/3
f 188/1/1 228/1/1 233/1/1 191/1/1
f 142/1/3 182/1/3 161/1/3 121/1/3
f 195/2/6 201/2/6 202/2/6 196/2/6
f 194/2/6 200/2/6 199/1/6 193/1/6
f 189/1/6 190/1/6 203/1/6 197/1/6
f 198/2/6 204/2/6 201/2/6 195/2/6
f 197/1/6 203/1/6 191/1/6 192/1/6
f 183/2/4 200/2/4 194/2/4 143/2/4
f 144/2/2 195/2/2 196/2/2 145/2/2
f 184/2/1 201/2/1 204/2/1 187/2/1
f 123/1/2 189/1/2 197/1/2 146/1/2
f 188/1/1 191/1/1 203/1/1 186/1/1
f 147/2/2 198/2/2 195/2/2 144/2/2
f 146/1/2 197/1/2 192/1/2 148/1/2
f 145/2/3 196/2/3 202/2/3 185/2/3
f 182/1/1 199/1/1 200/2/1 183/2/1
f 163/1/4 190/1/4 189/1/4 123/1/4
f 111/2/2 237/2/2 240/2/2 129/2/2
f 210/5/5 217/5/5 216/5/5 209/5/5
f 208/6/5 215/6/5 214/5/5 207/5/5
f 211/6/5 218/6/5 219/6/5 212/6/5
f 209/5/5 216/5/5 220/5/5 213/5/5
f 205/6/5 206/6/5 218/6/5 211/6/5
f 176/3/1 216/3/1 217/3/1 177/3/1
f 135/6/2 208/6/2 207/5/2 134/5/2
f 179/4/1 219/4/1 218/4/1 178/4/1
f 137/5/2 210/5/2 209/5/2 136/5/2
f 180/3/1 220/3/1 216/3/1 176/3/1
f 175/6/3 215/6/3 208/6/3 135/6/3
f 138/6/2 211/6/2 212/6/2 139/6/2
f 178/4/1 218/4/1 206/4/1 181/4/1
f 136/5/2 209/5/2 213/5/2 140/5/2
f 139/6/4 212/6/4 219/6/4 179/6/4
f 141/6/2 205/6/2 211/6/2 138/6/2
f 224/7/3 236/7/3 235/7/3 223/7/3
f 222/7/3 221/7/3 224/7/3 223/7/3
f 229/1/3 228/1/3 230/1/3 227/1/3
f 229/1/3 234/1/3 233/1/3 228/1/3
f 226/1/3 232/1/3 231/7/3 225/7/3
f 225/7/3 231/7/3 221/7/3 222/7/3
f 227/1/3 230/1/3 232/1/3 226/1/3
f 191/1/6 233/1/6 234/1/6 192/1/6
f 171/1/1 232/1/1 230/1/1 173/1/1
f 181/4/1 224/4/1 221/4/1 172/4/1
f 130/7/2 225/7/2 222/7/2 132/7/2
f 141/6/2 223/6/2 235/6/2 205/6/2
f 205/6/5 235/6/5 236/6/5 206/6/5
f 133/1/2 227/1/2 226/1/2 131/1/2
f 132/7/2 222/7/2 223/7/2 141/7/2
f 206/4/1 236/4/1 224/4/1 181/4/1
f 238/5/4 244/5/4 243/2/4 237/2/4
f 241/5/4 251/5/4 252/5/4 247/5/4
f 239/5/4 245/5/4 244/5/4 238/5/4
f 237/2/4 243/2/4 246/2/4 240/2/4
f 241/5/4 247/5/4 245/5/4 239/5/4
f 240/2/4 246/2/4 248/2/4 242/2/4
f 248/2/4 249/2/4 250/2/4 242/2/4
f 198/2/6 250/2/6 249/2/6 204/2/6
f 152/3/1 244/3/1 245/3/1 168/3/1
f 187/2/1 248/2/1 246/2/1 169/2/1
f 112/5/2 238/5/2 237/2/2 111/2/2
f 169/2/1 246/2/1 243/2/1 151/2/1
f 168/3/1 245/3/1 247/3/1 180/3/1
f 128/5/2 239/5/2 238/5/2 112/5/2
f 129/2/2 240/2/2 242/2/2 147/2/2
f 220/5/5 252/5/5 251/5/5 213/5/5
