# Blender 4.1.0
# www.blender.org
mtllib unit-screen.mtl
o Cube
v 0.001000 0.001000 0.002000
v 0.001000 0.001000 -0.002000
v 0.001000 -0.003000 0.002000
v 0.001000 -0.003000 -0.002000
v 0.005000 0.001000 0.002000
v 0.005000 0.001000 -0.002000
v 0.005000 -0.003000 0.002000
v 0.005000 -0.003000 -0.002000
v 0.005000 -0.003000 -0.002000
v 0.005000 -0.003000 0.002000
v 0.005000 0.001000 0.002000
v 0.005000 0.001000 -0.002000
v 1.003000 0.001000 0.002000
v 1.003000 0.001000 -0.002000
v 1.003000 -0.003000 0.002000
v 1.003000 -0.003000 -0.002000
v 1.007000 0.001000 0.002000
v 1.007000 0.001000 -0.002000
v 1.007000 -0.003000 0.002000
v 1.007000 -0.003000 -0.002000
v 1.007000 -0.003000 -0.002000
v 1.007000 -0.003000 0.002000
v 1.007000 0.001000 0.002000
v 1.007000 0.001000 -0.002000
v 0.001000 1.003000 0.002000
v 0.001000 1.003000 -0.002000
v 0.001000 0.999000 0.002000
v 0.001000 0.999000 -0.002000
v 0.005000 1.003000 0.002000
v 0.005000 1.003000 -0.002000
v 0.005000 0.999000 0.002000
v 0.005000 0.999000 -0.002000
v 0.005000 0.999000 -0.002000
v 0.005000 0.999000 0.002000
v 0.005000 1.003000 0.002000
v 0.005000 1.003000 -0.002000
v 1.002572 1.004286 0.002000
v 1.002572 1.004286 -0.002000
v 1.002572 1.000286 0.002000
v 1.002572 1.000286 -0.002000
v 1.006572 1.004286 0.002000
v 1.006572 1.004286 -0.002000
v 1.006572 1.000286 0.002000
v 1.006572 1.000286 -0.002000
v 1.006572 1.000286 -0.002000
v 1.006572 1.000286 0.002000
v 1.006572 1.004286 0.002000
v 1.006572 1.004286 -0.002000
vn -1.0000 -0.0000 -0.0000
vn -0.0000 -1.0000 -0.0000
vn -0.0000 -0.0000 -1.0000
vn 1.0000 -0.0000 -0.0000
vn -0.0000 -0.0000 1.0000
vn -0.0000 1.0000 -0.0000
vn 1.0000 0.0004 -0.0000
vn -0.0013 1.0000 -0.0000
vn -1.0000 -0.0004 -0.0000
vn 0.0013 -1.0000 -0.0000
vt 0.375000 0.000000
vt 0.625000 0.000000
vt 0.625000 0.250000
vt 0.375000 0.250000
vt 0.625000 0.500000
vt 0.375000 0.500000
vt 0.625000 0.750000
vt 0.375000 0.750000
vt 0.125000 0.500000
vt 0.125000 0.750000
vt 0.875000 0.500000
vt 0.875000 0.750000
vt 0.625000 1.000000
vt 0.375000 1.000000
s 0
f 1/1/1 2/2/1 4/3/1 3/4/1
f 3/4/2 4/3/2 8/5/2 7/6/2
f 8/5/3 6/7/3 12/7/3 9/5/3
f 32/5/4 31/6/4 5/8/4 6/7/4
f 3/9/5 7/6/5 5/8/5 1/10/5
f 8/5/3 4/11/3 2/12/3 6/7/3
f 13/1/6 14/2/6 12/7/6 11/8/6
f 7/6/3 8/5/3 9/5/3 10/6/3
f 6/7/3 5/8/3 11/8/3 12/7/3
f 5/8/3 7/6/3 10/6/3 11/8/3
f 15/9/5 13/10/5 11/8/5 10/6/5
f 15/4/2 16/3/2 20/5/2 19/6/2
f 20/5/3 18/7/3 24/7/3 21/5/3
f 44/5/7 43/6/7 17/8/7 18/7/7
f 15/9/5 19/6/5 17/8/5 13/10/5
f 20/5/3 16/11/3 14/12/3 18/7/3
f 22/6/4 21/5/4 24/7/4 23/8/4
f 19/6/3 20/5/3 21/5/3 22/6/3
f 18/7/3 17/8/3 23/8/3 24/7/3
f 17/8/3 19/6/3 22/6/3 23/8/3
f 25/1/1 26/2/1 28/3/1 27/4/1
f 28/11/3 32/5/3 6/7/3 2/12/3
f 32/5/3 30/7/3 36/7/3 33/5/3
f 29/8/6 30/7/6 26/13/6 25/14/6
f 27/9/5 31/6/5 29/8/5 25/10/5
f 32/5/3 28/11/3 26/12/3 30/7/3
f 37/14/8 38/13/8 36/7/8 35/8/8
f 31/6/3 32/5/3 33/5/3 34/6/3
f 30/7/3 29/8/3 35/8/3 36/7/3
f 29/8/3 31/6/3 34/6/3 35/8/3
f 39/9/5 37/10/5 35/8/5 34/6/5
f 40/11/3 44/5/3 18/7/3 14/12/3
f 44/5/3 42/7/3 48/7/3 45/5/3
f 41/8/6 42/7/6 38/13/6 37/14/6
f 39/9/5 43/6/5 41/8/5 37/10/5
f 44/5/3 40/11/3 38/12/3 42/7/3
f 46/6/4 45/5/4 48/7/4 47/8/4
f 43/6/3 44/5/3 45/5/3 46/6/3
f 42/7/3 41/8/3 47/8/3 48/7/3
f 41/8/3 43/6/3 46/6/3 47/8/3
f 43/6/5 39/9/5 13/10/5 17/8/5
f 39/4/9 40/3/9 14/2/9 13/1/9
f 14/12/3 16/11/3 9/5/3 12/7/3
f 16/3/2 15/4/2 10/6/2 9/5/2
f 31/6/5 27/9/5 1/10/5 5/8/5
f 27/4/1 28/3/1 2/2/1 1/1/1
f 38/12/3 40/11/3 33/5/3 36/7/3
f 40/3/10 39/4/10 34/6/10 33/5/10
