# Blender 4.1.1
# www.blender.org
mtllib unit-cube.mtl
o Cube1
v -1.000000 -1.000000 -1.000000
v -1.000000 -1.000000 1.000000
v -1.000000 1.000000 -1.000000
v -1.000000 1.000000 1.000000
v 1.000000 -1.000000 -1.000000
v 1.000000 -1.000000 1.000000
v 1.000000 1.000000 -1.000000
v 1.000000 1.000000 1.000000
vn -0.0000 -1.0000 -0.0000
vn -1.0000 -0.0000 -0.0000
vn -0.0000 -0.0000 1.0000
vn -0.0000 -0.0000 -1.0000
vn -0.0000 1.0000 -0.0000
vn 1.0000 -0.0000 -0.0000
s 0
f 1//1 5//1 6//1 2//1
f 2//2 4//2 3//2 1//2
f 2//3 6//3 8//3 4//3
f 3//4 7//4 5//4 1//4
f 4//5 8//5 7//5 3//5
f 5//6 7//6 8//6 6//6
